<svg xmlns="http://www.w3.org/2000/svg" x="0px" y="0px"
width="55" height="55"
viewBox="0 0 172 172"
style=" fill:#000000;"><g fill="none" fill-rule="nonzero" stroke="none" stroke-width="1" stroke-linecap="butt" stroke-linejoin="miter" stroke-miterlimit="10" stroke-dasharray="" stroke-dashoffset="0" font-family="none" font-weight="none" font-size="none" text-anchor="none" style="mix-blend-mode: normal"><path d="M0,172v-172h172v172z" fill="none"></path><g><path d="M32.25,46.58333c-3.58333,37.02658 -7.16667,74.05675 -10.75,111.08333c43,0 86,0 129,0c-3.58333,-37.02658 -7.16667,-74.05675 -10.75,-111.08333c-35.83333,0 -71.66667,0 -107.5,0z" fill="#6e6554"></path><circle cx="16" cy="18" transform="scale(3.58333,3.58333)" r="2" fill="#c3bf90"></circle><circle cx="32" cy="18" transform="scale(3.58333,3.58333)" r="2" fill="#c3bf90"></circle><path d="M86,75.465c-11.825,0 -21.5,10.07633 -21.5,22.23817c0,8.33842 11.46667,27.7995 21.5,42.04683c10.03333,-14.24733 21.5,-33.70483 21.5,-42.04683c0,-12.16183 -9.675,-22.23817 -21.5,-22.23817z" fill="#d32f2f"></path><circle cx="24" cy="27" transform="scale(3.58333,3.58333)" r="4" fill="#b71c1c"></circle><circle cx="24" cy="27" transform="scale(3.58333,3.58333)" r="2" fill="#ffebee"></circle><path d="M114.66667,68.08333c-1.98158,0 -3.58333,-1.60533 -3.58333,-3.58333v-23.607c0,-12.67067 -11.25525,-22.97633 -25.08333,-22.97633c-13.82808,0 -25.08333,10.30567 -25.08333,22.97633v23.607c0,1.978 -1.60175,3.58333 -3.58333,3.58333c-1.98158,0 -3.58333,-1.60533 -3.58333,-3.58333v-23.607c0,-16.62308 14.46592,-30.143 32.25,-30.143c17.78408,0 32.25,13.51992 32.25,30.143v23.607c0,1.978 -1.60175,3.58333 -3.58333,3.58333z" fill="#f8f3ef"></path></g></g></svg>